<?xml version="1.0" encoding="UTF-8" standalone="no"?>
<!DOCTYPE svg PUBLIC "-//W3C//DTD SVG 1.1//EN" "http://www.w3.org/Graphics/SVG/1.1/DTD/svg11.dtd">
<svg width="100%" height="100%" viewBox="0 0 206 277" version="1.1" xmlns="http://www.w3.org/2000/svg" xmlns:xlink="http://www.w3.org/1999/xlink" xml:space="preserve" xmlns:serif="http://www.serif.com/" style="fill-rule:evenodd;clip-rule:evenodd;stroke-linejoin:round;stroke-miterlimit:2;">
    <g transform="matrix(1.36771,0,0,1.31013,-247.382,-185.658)">
        <path d="M205.794,273.451C204.39,271.715 202.483,270.178 200.915,268.553C186.921,254.041 180.42,234.844 180.898,214.873C181.226,201.18 185.364,186.81 193.083,175.424C196.445,170.466 200.699,165.888 205.024,161.765C219.353,148.108 239.349,141.119 259,141.748C269.964,142.099 279.884,145.263 289.568,150.275C294.456,152.805 299.103,155.63 303.355,159.141C306.41,161.663 309.211,164.599 311.909,167.494L312.887,168.619C315.119,171.357 317.358,174.133 319.245,177.125C328.401,191.649 332.309,208.283 330.574,225.35C330.047,230.538 328.948,235.877 327.355,240.849C326.753,242.725 326.022,244.564 325.246,246.374C324.993,246.963 324.33,248.058 324.35,248.676C320.976,255.487 316.87,262.207 311.707,267.828C309.482,270.25 306.246,272.689 304.395,275.347C302.441,278.152 300.785,281.242 298.943,284.132L282.312,310.672L264.369,339.032L255.924,352.462L242.327,330.514L226.486,305.195L214.482,285.599C212.56,282.443 210.657,278.582 208.32,275.761C207.623,274.92 206.698,274.186 205.879,273.464L205.794,273.451ZM252.937,149.11C270.277,148.555 286.555,154.452 299.72,165.762C313.676,177.753 322.299,195.25 323.651,213.549C324.859,229.898 318.993,247.885 308.232,260.248C296.794,273.388 279.948,282.141 262.512,283.35L262.477,260.84L259.506,261.71C255.93,262.131 252.891,262.137 249.476,260.931L249.365,283.449C234.258,281.979 221.242,276.771 209.739,266.733C196.671,255.329 189.396,239.198 188.313,222.028C187.173,203.946 192.979,185.795 205.012,172.19C217.448,158.133 234.329,150.262 252.937,149.11Z" style="fill:url(#_Linear1);"/>
    </g>
    <g transform="matrix(0.683855,0,0,0.655067,-247.382,-185.658)">
        <path d="M510.632,333.704C524.487,334.378 537.73,338.295 547.762,348.376C556.054,356.709 562.033,368.457 563.296,380.217C564.203,388.668 563.477,397.84 563.421,406.366L548.798,406.194C546.119,406.172 543.099,405.888 540.467,406.346C539.283,406.552 538.299,407.106 537.439,407.934C536.119,409.206 535.27,410.718 535.252,412.573C535.236,414.288 535.79,416.001 537.058,417.201C539.564,419.573 543.65,418.914 546.834,418.926L563.439,418.915L563.359,428.854C559.484,428.85 540.059,427.996 537.955,429.425C536.593,430.349 535.519,432.095 535.395,433.75C535.263,435.495 535.486,436.903 536.75,438.209C537.361,438.84 538.915,440.238 539.667,440.562C541.172,441.209 544.228,440.889 545.873,440.899L563.489,440.704L563.467,450.37C558.51,450.385 540.727,449.302 537.51,451.866C536.155,452.946 535.582,454.569 535.485,456.25C535.379,458.093 536.133,459.939 537.479,461.206C539.885,463.469 543.867,462.864 546.915,462.84L563.51,462.623C563.576,475.124 561.218,484.587 553.981,494.998C545.741,506.85 532.956,513.84 518.979,516.34L510.931,516.914C497.892,517.141 484.899,510.283 475.75,501.395C464.641,490.603 461.139,477.799 460.89,462.803L474.69,462.897C478.453,462.91 482.7,463.639 485.75,460.983C487.059,459.842 487.802,458.241 487.816,456.5C487.83,454.842 487.342,453.413 486.175,452.227C485.354,451.394 484.429,450.886 483.316,450.548C481.545,450.011 478.642,450.352 476.753,450.341L460.986,450.301L460.976,440.573L476.194,440.553C478.241,440.54 481.078,440.84 483.009,440.325C483.935,440.078 484.902,439.322 485.609,438.702C487.069,437.422 487.548,436.321 487.584,434.384C487.614,432.738 487.428,431.598 486.228,430.382C485.342,429.486 484.847,429.11 483.565,428.891C480.946,428.445 477.918,428.716 475.237,428.706L460.965,428.604L460.946,419.022L478.139,419.016C480.331,419.009 483.208,419.409 484.97,417.918C486.513,416.611 487.654,414.984 487.651,412.901C487.647,410.49 486.124,408.88 484.545,407.25C481.898,406.146 478.822,406.489 475.987,406.482L460.966,406.505L460.936,388.693C460.944,385.088 460.727,381.332 461.27,377.762L461.393,377C462.691,367.96 466.897,358.862 472.941,351.992C483.218,340.313 495.208,334.752 510.632,333.704Z" style="fill:url(#_Linear2);fill-rule:nonzero;"/>
    </g>
    <defs>
        <linearGradient id="_Linear1" x1="0" y1="0" x2="1" y2="0" gradientUnits="userSpaceOnUse" gradientTransform="matrix(0.540859,212.796,-191.347,0.53003,255.612,137.038)"><stop offset="0" style="stop-color:rgb(71,138,203);stop-opacity:1"/><stop offset="1" style="stop-color:rgb(106,0,203);stop-opacity:1"/></linearGradient>
        <linearGradient id="_Linear2" x1="0" y1="0" x2="1" y2="0" gradientUnits="userSpaceOnUse" gradientTransform="matrix(1.08172,425.591,-382.694,1.06006,511.224,274.076)"><stop offset="0" style="stop-color:rgb(71,138,203);stop-opacity:1"/><stop offset="1" style="stop-color:rgb(106,0,203);stop-opacity:1"/></linearGradient>
    </defs>
</svg>
